<?xml version="1.0" encoding="UTF-8" standalone="no"?>
<svg
   xmlns:dc="http://purl.org/dc/elements/1.1/"
   xmlns:cc="http://creativecommons.org/ns#"
   xmlns:rdf="http://www.w3.org/1999/02/22-rdf-syntax-ns#"
   xmlns:svg="http://www.w3.org/2000/svg"
   xmlns="http://www.w3.org/2000/svg"
   viewBox="0 0 2000 1999.9999"
   height="1999.9999"
   width="2000"
   xml:space="preserve"
   id="svg2"
   version="1.1"><metadata
     id="metadata8"><rdf:RDF><cc:Work
         rdf:about=""><dc:format>image/svg+xml</dc:format><dc:type
           rdf:resource="http://purl.org/dc/dcmitype/StillImage" /></cc:Work></rdf:RDF></metadata><defs
     id="defs6"><clipPath
       id="clipPath14"
       clipPathUnits="userSpaceOnUse"><path
         id="path12"
         d="M 0,7.9199667 H 1500 V 1507.9199 H 0 Z" /></clipPath><clipPath
       id="clipPath24"
       clipPathUnits="userSpaceOnUse"><path
         style="clip-rule:evenodd"
         id="path22"
         d="M 0,0 H 6250 V 6250 H 0 Z" /></clipPath><clipPath
       id="clipPath36"
       clipPathUnits="userSpaceOnUse"><path
         style="clip-rule:evenodd"
         id="path34"
         d="M 0,0 H 6250 V 6250 H 0 Z" /></clipPath><clipPath
       id="clipPath48"
       clipPathUnits="userSpaceOnUse"><path
         style="clip-rule:evenodd"
         id="path46"
         d="M 2084.0911,1875 H 4165.3409 V 4375 H 2084.0911 Z" /></clipPath></defs><g
     clip-path="url(#clipPath14)"
     transform="matrix(1.3333333,0,0,-1.3333333,0,2010.5599)"
     id="g10"><g
       transform="matrix(0.23999999,0,0,-0.23999999,0,1507.9199)"
       id="g16"><g
         id="g18"><g
           clip-path="url(#clipPath24)"
           id="g20"><g
             transform="scale(3.125)"
             id="g26"><path
               id="path28"
               style="fill:#ffffff;fill-opacity:1;fill-rule:nonzero;stroke:none"
               d="M 0,0 H 2000 V 2000 H 0 Z" /></g></g></g><g
         id="g30"><g
           clip-path="url(#clipPath36)"
           id="g32"><g
             transform="scale(3.125)"
             id="g38"><path
               id="path40"
               style="fill:#ffffff;fill-opacity:1;fill-rule:nonzero;stroke:none"
               d="M 0,0 H 2000 V 2000 H 0 Z" /></g></g></g><g
         id="g42"><g
           clip-path="url(#clipPath48)"
           id="g44"><g
             transform="matrix(4.9161191,0,0,4.917388,2085.6943,1903.0291)"
             id="g50"><path
               id="path52"
               style="fill:#000000;fill-opacity:1;fill-rule:nonzero;stroke:none"
               d="m 397.03,162.67 c -5.23999,10.91 -14.76001,18.81 -27.25,19.31 -12.87,0.50999 -21.98999,-8.36 -31.98999,-15.11001 C 315.13,151.56999 290.81,138.79999 265.67999,128.06 209.23,103.95 148.23,88.970001 86.769989,86.769997 65.239998,86 33.759998,93.489998 24.58,67.019997 21.4,57.859997 22.299999,47.579994 27.74,39.459999 34.220001,29.799999 44.060001,27 55.029999,25.49 112.98,17.540001 173.16,26.369999 228.81999,43.02 c 58.25002,17.430001 115.90999,44.959996 160.63002,86.86 10.67002,10 26.76999,-6.04 16.07001,-16.06999 C 360.72,71.82 304.04001,43.349998 246,24.57 183.62,4.3899999 115.8,-5.73 50.490002,3.3600001 23.040001,7.1800003 0.52000046,25.960001 0.01000214,55.360001 -0.34999788,76.120003 11.660002,95.229996 29.650002,104.2 c 1.01,0.73 2.2,1.29 3.569999,1.62 3.57,1.45 7.34,2.52 11.270001,3.14 14.740001,2.31 30.469997,0.02 45.41,0.67 16.889998,0.73 33.729998,2.48 50.409998,5.24 35.3,5.83999 70.03,15.47999 103.33999,28.54 32.34,12.68 63.51999,29.05001 91.72001,49.39 4.92001,3.55001 10.20999,6.24001 15.64999,8.09 -9.73999,10.47 -19.47,20.94 -29.20999,31.41 -3.15,-15.39999 -14.09,-28.58 -30.4,-33.44999 -22.88,-6.83001 -47.69999,7.13 -54.36,29.89 -6.71,22.91 7.05001,47.68 29.89,54.36 2.13001,0.63 4.26001,1.07 6.38001,1.35998 -0.84,0.9 -1.68,1.81 -2.51999,2.70999 -48.77001,52.45002 -97.54001,104.9 -146.3,157.34 -6.14,6.60001 -12.27001,13.20001 -18.41001,19.79999 -5.46,-31.10001 -10.919997,-62.19001 -16.370001,-93.29001 -10.64,-60.60001 -21.269997,-121.2 -31.91,-181.78999 -2.450001,-13.99001 -4.91,-27.97001 -7.360001,-41.96001 -2.52,-14.38001 -24.43,-8.29 -21.92,6.03999 6.710001,38.23 13.42,76.46001 20.129999,114.68999 10.64,60.60001 21.270001,121.20001 31.91,181.78998 2.449997,13.98999 4.910004,27.97 7.360001,41.95999 1.480003,8.44 13.520002,10.89999 18.990002,5.01001 30.76,-33.07999 61.51,-66.16001 92.26999,-99.23001 48.77001,-52.45001 97.54001,-104.9 146.29999,-157.34 11.22,-12.06 22.42999,-24.11999 33.64999,-36.17999 0.32999,-0.36 0.63001,-0.73 0.91001,-1.10001 15.20001,-3.05 28.89999,-12.69 36.61999,-28.77 C 422.95999,161.02 403.37,149.48 397.03,162.67 Z m -138.07999,72.11 c 8.07001,-26.03 47.15,-14.09 40.41999,12.39999 C 290.59,273.13 250.91,260.73001 258.95001,234.78 Z" /><path
               id="path54"
               style="fill:#000000;fill-opacity:1;fill-rule:nonzero;stroke:none"
               d="m 140.7,132.22 c -22.88,-6.83 -47.7,7.13001 -54.360004,29.89 -6.709999,22.91 7.050003,47.68001 29.890004,54.36 22.71,6.65 44.96,-6.28999 53.41,-27.32001 0.39,-0.77 0.72,-1.61999 0.96001,-2.55999 0.30999,-0.93 0.5,-1.82001 0.58999,-2.67 4.34,-22.38001 -7.96,-44.97 -30.49,-51.7 z m -32.44,35.92999 c 8.07,-26.03 47.15,-14.08999 40.41999,12.4 -8.78,25.95001 -48.46999,13.55002 -40.41999,-12.4 z" /><path
               id="path56"
               style="fill:#000000;fill-opacity:1;fill-rule:nonzero;stroke:none"
               d="m 120.76,323.92001 c 0,23.84 20.02,43.87 43.87,43.87 23.59,0 41.51,-18.54001 43.67,-41.13001 0.16001,-0.85 0.23,-1.76001 0.19001,-2.73001 0.04,-0.97 -0.03,-1.88 -0.19001,-2.72 -2.16,-22.64999 -20.06999,-41.06 -43.68001,-41.13998 -23.83999,-0.11002 -43.85999,20.07 -43.85999,43.85 z m 65.01,0 c -1.05,27.32999 -42.28,27.22 -42.28,0 0,-27.19 41.22001,-27.37002 42.28,0 z" /></g></g></g></g><path
       id="path58"
       style="fill:#000000;fill-opacity:0;fill-rule:nonzero;stroke:none"
       d="M 500.18182,457.91995 H 999.81817 V 1057.92 H 500.18182 Z" /></g></svg>